PathFileType	4	(X/Y/Z)	/Users/itak/Documents/Research/Walk-IL/dataset/trc/00276_00010.trc
DataRate	CameraRate	NumFrames	NumMarkers	Units	OrigDataRate	OrigDataStartFrame	OrigNumFrames
100.000000	100.000000	4	54	mm	100.000000	431	493
Frame#	Time	RPSI			LPSI			L3			STRN			T10			C7			CLAV			RBAK			LBAK			LSHO			LUPA			LAEL			LAOL			LWTS			LWPS			LFRA			LHPS			LHTS			RSHO			RUPA			RAEL			RAOL			RWTS			RWPS			RFRA			RIFD			RHTS			RHPS			RBHD			LFHD			RFHD			LBHD			LHIP			RHIP			RASI			LKNE			LTHI			LANK			LTIP			LTOE			LMT1			LMT5			LHEE			RKNE			RTHI			RANK			RTIP			RTOE			RMT1			RMT5			RHEE			LIFD			LASI			*53			
		X1	Y1	Z1	X2	Y2	Z2	X3	Y3	Z3	X4	Y4	Z4	X5	Y5	Z5	X6	Y6	Z6	X7	Y7	Z7	X8	Y8	Z8	X9	Y9	Z9	X10	Y10	Z10	X11	Y11	Z11	X12	Y12	Z12	X13	Y13	Z13	X14	Y14	Z14	X15	Y15	Z15	X16	Y16	Z16	X17	Y17	Z17	X18	Y18	Z18	X19	Y19	Z19	X20	Y20	Z20	X21	Y21	Z21	X22	Y22	Z22	X23	Y23	Z23	X24	Y24	Z24	X25	Y25	Z25	X26	Y26	Z26	X27	Y27	Z27	X28	Y28	Z28	X29	Y29	Z29	X30	Y30	Z30	X31	Y31	Z31	X32	Y32	Z32	X33	Y33	Z33	X34	Y34	Z34	X35	Y35	Z35	X36	Y36	Z36	X37	Y37	Z37	X38	Y38	Z38	X39	Y39	Z39	X40	Y40	Z40	X41	Y41	Z41	X42	Y42	Z42	X43	Y43	Z43	X44	Y44	Z44	X45	Y45	Z45	X46	Y46	Z46	X47	Y47	Z47	X48	Y48	Z48	X49	Y49	Z49	X50	Y50	Z50	X51	Y51	Z51	X52	Y52	Z52	X53	Y53	Z53	X54	Y54	Z54	

432	4.31	-1276.902954101562	1016.1240234375	150.0045471191406	-1287.383666992188	1010.129760742188	-25.8580379486084	-1260.312866210938	1077.574096679688	61.02888870239258	-1016.078002929688	1252.753784179688	53.74028396606445	-1276.749145507812	1184.78955078125	63.89763641357422	-1241.769653320312	1432.550048828125	48.89132690429688	-1080.625732421875	1352.52587890625	52.80513763427734	-1285.224365234375	1291.218505859375	128.1499938964844	-1257.081298828125	1394.938598632812	-57.04646682739258	-1164.877685546875	1402.776489257812	-108.1092376708984	-1175.797485351562	1284.57373046875	-184.1089324951172	-1143.88037109375	1082.650756835938	-192.5188751220703	-1224.903686523438	1064.670043945312	-163.8967437744141	-1067.227172851562	872.1768798828125	-105.9316101074219	-1070.2900390625	855.4196166992188	-176.4473419189453	-1116.793334960938	980.4429321289062	-190.2643280029297	-1056.27734375	768.4371337890625	-166.7917175292969	-1025.098876953125	778.5746459960938	-108.6427917480469	-1167.927124023438	1410.751953125	206.7117462158203	-1169.869018554688	1352.535766601562	274.0267028808594	-1170.523193359375	1087.812255859375	327.3518371582031	-1209.706665039062	1076.631225585938	240.0312805175781	-1048.800903320312	878.203857421875	270.4022521972656	-1089.747680664062	866.6644287109375	344.4739074707031	-1141.506591796875	1021.858703613281	338.3183898925781	-1018.923583984375	696.2310180664062	266.5166931152344	-1003.668334960938	767.4837036132812	286.130615234375	-1051.736328125	759.3283081054688	337.7044982910156	-1206.330688476562	1578.099609375	142.1752166748047	-1082.3740234375	1646.994262695312	-17.14882659912109	-1056.869506835938	1641.650756835938	71.85048675537109	-1243.958618164062	1576.226440429688	-0.1905450224876404	-1222.015502929688	958.6295776367188	-120.5074844360352	-1175.202758789062	957.5625610351562	248.1142883300781	-1058.252563476562	956.3794555664062	172.3040618896484	-1182.51123046875	487.81689453125	-102.4074325561523	-1182.128295898438	630.8482666015625	-121.8514785766602	-1298.253540039062	50.1569709777832	-88.59576416015625	-1249.507446289062	268.8419494628906	-105.508415222168	-1089.616088867188	43.85766220092773	-33.69741058349609	-1158.913818359375	36.31365966796875	8.408599853515625	-1174.116577148438	47.21312713623047	-103.5166854858398	-1342.848022460938	43.05724334716797	-28.50552558898926	-1194.514770507812	484.9389953613281	199.1246490478516	-1133.440185546875	741.4989013671875	233.7458038330078	-1263.281860351562	45.34222412109375	160.7191314697266	-1194.8349609375	366.1842346191406	181.9205474853516	-1073.771362304688	51.06680679321289	89.68257141113281	-1133.292846679688	48.40864181518555	56.28694915771484	-1154.996337890625	37.60165405273438	173.2085266113281	-1320.623657226562	44.50596237182617	112.941276550293	-1041.299194335938	688.0181274414062	-90.9482421875	-1081.121459960938	961.6051635742188	-80.00836944580078	nan	nan	nan	
433	4.32	-1276.87451171875	1016.422058105469	149.4403839111328	-1287.5537109375	1010.292602539062	-26.24792098999023	-1260.399658203125	1077.822875976562	60.54739761352539	-1015.7421875	1252.682739257812	52.41060638427734	-1276.47900390625	1185.143310546875	63.51011657714844	-1241.265625	1432.791381835938	48.56809997558594	-1080.146484375	1352.501953125	51.84868621826172	-1284.623657226562	1291.497802734375	128.029296875	-1256.9453125	1395.285888671875	-57.42439270019531	-1164.847045898438	1403.100952148438	-108.7193832397461	-1175.902954101562	1284.96533203125	-184.7699432373047	-1143.949462890625	1083.084838867188	-192.8348388671875	-1225.227783203125	1065.072631835938	-164.7684936523438	-1067.756469726562	872.7981567382812	-105.4753723144531	-1070.002685546875	855.9982299804688	-176.0153045654297	-1116.753295898438	980.9083251953125	-190.3460693359375	-1055.906005859375	769.0414428710938	-166.1561431884766	-1025.362182617188	779.2810668945312	-107.6371307373047	-1166.836303710938	1410.841064453125	206.0235748291016	-1168.362182617188	1352.534545898438	273.3791809082031	-1168.340209960938	1087.777709960938	326.7292175292969	-1208.227294921875	1076.608520507812	239.6971130371094	-1045.98291015625	878.9472045898438	268.4890747070312	-1086.367065429688	867.02587890625	342.843505859375	-1138.960815429688	1021.917907714844	337.33642578125	-1014.945495605469	697.2178344726562	263.9226379394531	-999.97021484375	768.5553588867188	283.6784973144531	-1047.68896484375	759.9174194335938	335.550537109375	-1205.222778320312	1577.915649414062	142.2354583740234	-1083.145751953125	1647.430053710938	-18.19110107421875	-1056.646484375	1642.011474609375	70.54086303710938	-1244.232177734375	1576.133056640625	0.2935712933540344	-1222.235229492188	958.7821655273438	-121.4028396606445	-1175.066772460938	957.6878051757812	247.4384155273438	-1058.277221679688	956.415283203125	171.2701721191406	-1183.268188476562	487.8544921875	-102.7629089355469	-1182.771850585938	630.8483276367188	-122.2643966674805	-1298.275634765625	50.12250900268555	-88.56133270263672	-1249.924438476562	268.8182067871094	-105.5944290161133	-1089.61181640625	43.83184814453125	-33.66280364990234	-1158.903076171875	36.29381942749023	8.426929473876953	-1174.122802734375	47.21775817871094	-103.4974975585938	-1342.876586914062	42.98943328857422	-28.48785972595215	-1194.595581054688	485.0524597167969	198.5548706054688	-1133.350708007812	741.6617431640625	233.0400238037109	-1263.252197265625	45.40603256225586	160.6637878417969	-1194.941040039062	366.3110656738281	181.5668640136719	-1073.733032226562	51.04494094848633	89.68769073486328	-1133.256225585938	48.42222595214844	56.30245971679688	-1154.980590820312	37.59982299804688	173.2249298095703	-1320.586669921875	44.59714126586914	112.9183959960938	-1041.608642578125	688.80712890625	-90.03290557861328	-1081.400146484375	961.7538452148438	-80.93197631835938	nan	nan	nan	
434	4.33	-1276.931884765625	1016.682067871094	148.8660736083984	-1287.726318359375	1010.429565429688	-26.64291191101074	-1260.538696289062	1078.084228515625	60.03126525878906	-1015.374572753906	1252.607666015625	51.11966705322266	-1276.254516601562	1185.548950195312	63.10852813720703	-1240.697509765625	1433.076049804688	48.23009490966797	-1079.645874023438	1352.498779296875	50.89606475830078	-1284.021240234375	1291.845336914062	127.8618240356445	-1256.76123046875	1395.673950195312	-57.81216812133789	-1164.782958984375	1403.42724609375	-109.3551635742188	-1176.090087890625	1285.3544921875	-185.4354095458984	-1144.314819335938	1083.479248046875	-193.2366790771484	-1225.706298828125	1065.477416992188	-165.4500122070312	-1068.317749023438	873.4102783203125	-105.2797927856445	-1070.048828125	856.5186157226562	-175.8153076171875	-1117.01220703125	981.322509765625	-190.5549621582031	-1055.855224609375	769.5975341796875	-165.7614898681641	-1025.692504882812	779.9694213867188	-107.0298767089844	-1165.741821289062	1410.947021484375	205.3305053710938	-1166.853149414062	1352.573608398438	272.708740234375	-1166.155639648438	1087.765380859375	326.1057739257812	-1206.770141601562	1076.62060546875	239.3943634033203	-1043.254516601562	879.6614990234375	266.6122741699219	-1083.114501953125	867.3885498046875	341.228759765625	-1136.438598632812	1021.993835449219	336.3599548339844	-1011.24609375	698.1433715820312	261.3703002929688	-996.4899291992188	769.5626220703125	281.2635803222656	-1043.831665039062	760.497314453125	333.4237976074219	-1204.100708007812	1577.756591796875	142.2671356201172	-1083.852661132812	1647.888916015625	-19.20292663574219	-1056.391845703125	1642.4033203125	69.2540283203125	-1244.430297851562	1576.068237304688	0.7404342293739319	-1222.519775390625	958.925537109375	-122.1794967651367	-1175.016723632812	957.8411865234375	246.7494354248047	-1058.377197265625	956.4806518554688	170.3002319335938	-1184.026611328125	487.8991088867188	-103.1389236450195	-1183.405029296875	630.8549194335938	-122.6856384277344	-1298.2939453125	50.08915328979492	-88.54537200927734	-1250.331909179688	268.8004150390625	-105.6976776123047	-1089.609497070312	43.80926895141602	-33.63474655151367	-1158.902465820312	36.28251266479492	8.438119888305664	-1174.129272460938	47.21966552734375	-103.4857940673828	-1342.89990234375	42.93432998657227	-28.48334312438965	-1194.516723632812	485.1609497070312	198.0001831054688	-1133.260009765625	741.86328125	232.3976593017578	-1263.228881835938	45.48006820678711	160.6039581298828	-1194.878051757812	366.394775390625	181.1904602050781	-1073.70263671875	50.99709701538086	89.70691680908203	-1133.214721679688	48.43508911132812	56.31599426269531	-1154.962280273438	37.59812927246094	173.2378540039062	-1320.545532226562	44.70276260375977	112.8976516723633	-1041.888916015625	689.5712890625	-89.41921997070312	-1081.743896484375	961.8934326171875	-81.73726654052734	nan	nan	nan	
435	4.34	-1277.050903320312	1016.896118164062	148.2943267822266	-1287.906005859375	1010.54638671875	-27.04113388061523	-1260.734130859375	1078.348510742188	59.48573684692383	-1014.982604980469	1252.532104492188	49.87530136108398	-1276.077514648438	1185.996826171875	62.69591903686523	-1240.076049804688	1433.401123046875	47.86893844604492	-1079.14306640625	1352.508666992188	49.94667434692383	-1283.436645507812	1292.250122070312	127.6495971679688	-1256.5302734375	1396.096069335938	-58.21070861816406	-1164.691772460938	1403.748413085938	-110.0193939208984	-1176.361450195312	1285.730346679688	-186.1035766601562	-1144.955932617188	1083.8212890625	-193.7368621826172	-1226.331787109375	1065.874877929688	-165.9618530273438	-1068.892822265625	873.999267578125	-105.342887878418	-1070.418823242188	856.9636840820312	-175.853759765625	-1117.550903320312	981.6734619140625	-190.9010620117188	-1056.11865234375	770.0826416015625	-165.60888671875	-1026.088745117188	780.623291015625	-106.8175964355469	-1164.638061523438	1411.072998046875	204.6337280273438	-1165.362426757812	1352.647827148438	272.009521484375	-1163.9765625	1087.778198242188	325.4790954589844	-1205.339965820312	1076.647338867188	239.1125793457031	-1040.634399414062	880.3440551757812	264.7644958496094	-1079.985961914062	867.7510986328125	339.6329040527344	-1133.951049804688	1022.090637207031	335.3883972167969	-1007.818054199219	699.0046997070312	258.8710632324219	-993.2330322265625	770.4973754882812	278.8934631347656	-1040.164184570312	761.0595092773438	331.3304138183594	-1202.960327148438	1577.612182617188	142.2623443603516	-1084.478759765625	1648.363037109375	-20.18078994750977	-1056.117797851562	1642.81689453125	67.99512481689453	-1244.553344726562	1576.029418945312	1.14404559135437	-1222.868286132812	959.061279296875	-122.8523101806641	-1175.02880859375	958.0169677734375	246.052490234375	-1058.53271484375	956.5790405273438	169.3892822265625	-1184.79736328125	487.9488525390625	-103.5221252441406	-1184.041381835938	630.8697509765625	-123.1098861694336	-1298.310913085938	50.0580940246582	-88.5450439453125	-1250.744140625	268.7912902832031	-105.816047668457	-1089.60888671875	43.79059219360352	-33.61316680908203	-1158.911499023438	36.27936935424805	8.442704200744629	-1174.135498046875	47.21936798095703	-103.4814453125	-1342.918334960938	42.88965606689453	-28.48842430114746	-1194.28564453125	485.2624816894531	197.46435546875	-1133.173095703125	742.0936889648438	231.8097839355469	-1263.210205078125	45.56296539306641	160.5392761230469	-1194.667114257812	366.4435729980469	180.7994689941406	-1073.678100585938	50.92689514160156	89.73809814453125	-1133.16650390625	48.44718933105469	56.32670211791992	-1154.941040039062	37.59557342529297	173.2463836669922	-1320.49853515625	44.82363891601562	112.878791809082	-1042.149047851562	690.2980346679688	-89.07752990722656	-1082.151733398438	962.0253295898438	-82.43913269042969	nan	nan	nan	
